#!OML:ASF H:\Male1\Project 1\Capture day 1\Session 1\Male1.ASF
:FULLY-SPECIFIED
:DEGREES
452
root 15.2372 15.2259 -3.89813 122.163 85.3926 -236.26
lowerback 13.9833 0.826307 -4.48306
upperback 11.1644 1.47578 -1.79575
thorax 3.97557 0.872101 0.499486
lowerneck -9.26963 4.23835 10.1673
upperneck 18.3627 5.18943 -4.35117
head 7.56098 2.87323 -2.60786
rclavicle -7.95139e-015 2.18663e-015
rhumerus -14.4638 24.2205 -94.3482
rradius 73.1314
rwrist -37.2776
rhand -28.7129 -16.508
rfingers 7.12502
rthumb -2.07441 -46.4777
lclavicle -7.95139e-015 2.18663e-015
lhumerus -8.79143 -23.8762 84.894
lradius 67.139
lwrist 34.016
lhand -17.8712 22.6302
lfingers 7.12502
lthumb 8.39461 52.4434
rfemur -30.36 9.21437 18.1942
rtibia 33.9124
rfoot -28.9034 -28.3401
rtoes -13.6027
lfemur -5.66732 -4.27083 -27.7398
ltibia 29.2829
lfoot -21.0753 17.1831
ltoes -9.66763
453
root 15.4517 15.1851 -3.91138 123.827 85.0031 -234.54
lowerback 14.4238 0.753794 -4.45178
upperback 11.4517 1.40777 -1.66561
thorax 4.05773 0.847893 0.620491
lowerneck -9.1244 4.32151 10.5659
upperneck 18.1291 5.36653 -5.01737
head 7.50009 2.92219 -2.8783
rclavicle 5.26779e-015 7.35503e-015
rhumerus -13.6992 24.1844 -93.7035
rradius 72.9692
rwrist -37.3466
rhand -28.5954 -16.68
rfingers 7.12502
rthumb -1.96098 -46.6508
lclavicle 5.26779e-015 7.35503e-015
lhumerus -7.87911 -24.2179 84.7927
lradius 66.5861
lwrist 33.829
lhand -17.9657 22.2561
lfingers 7.12502
lthumb 8.30344 52.0729
rfemur -30.4008 12.1784 16.7078
rtibia 31.3815
rfoot -31.6023 -29.6159
rtoes -9.6708
lfemur -5.22643 -3.22882 -27.9488
ltibia 30.0805
lfoot -21.4741 16.4483
ltoes -10.9685
454
root 15.66 15.1356 -3.92152 125.051 84.5518 -233.186
lowerback 14.9478 0.679192 -4.43822
upperback 11.7887 1.34239 -1.53408
thorax 4.15307 0.827044 0.752519
lowerneck -9.00666 4.40378 10.7944
upperneck 17.8727 5.53749 -5.54042
head 7.42918 2.96903 -3.07346
rclavicle -5.46658e-015 1.0138e-014
rhumerus -12.8465 24.2478 -92.9774
rradius 72.8152
rwrist -37.4451
rhand -28.5425 -16.6856
rfingers 7.12502
rthumb -1.90989 -46.6568
lclavicle -5.46658e-015 1.0138e-014
lhumerus -6.87881 -24.5359 84.6596
lradius 66.0224
lwrist 33.5474
lhand -18.1255 21.952
lfingers 7.12502
lthumb 8.14922 51.7749
rfemur -30.3617 14.8464 15.2569
rtibia 29.6684
rfoot -33.3107 -30.4792
rtoes -7.37469
lfemur -4.95886 -2.08485 -28.1748
ltibia 31.2881
lfoot -21.8613 15.74
ltoes -12.3445
455
root 15.862 15.0829 -3.92797 126.012 84.0468 -232.065
lowerback 15.5096 0.596474 -4.42869
upperback 12.1718 1.27557 -1.41491
thorax 4.28349 0.80826 0.875016
lowerneck -8.90539 4.47907 10.868
upperneck 17.5769 5.68939 -5.91145
head 7.33937 3.0091 -3.19421
rclavicle -1.73688e-014 2.98177e-016
rhumerus -11.8747 24.3593 -92.1932
rradius 72.6317
rwrist -37.5377
rhand -28.5147 -16.5748
rfingers 7.12502
rthumb -1.88301 -46.5462
lclavicle -1.73688e-014 2.98177e-016
lhumerus -5.75816 -24.8556 84.4506
lradius 65.4304
lwrist 33.2068
lhand -18.3493 21.7263
lfingers 7.12502
lthumb 7.93323 51.5575
rfemur -30.1957 16.4295 14.1802
rtibia 28.7049
rfoot -33.4548 -30.6351
rtoes -6.92482
lfemur -4.91074 -0.848375 -28.3935
ltibia 32.9119
lfoot -22.1992 15.0224
ltoes -13.7895
456
root 16.0573 15.0322 -3.93027 127.197 83.5209 -230.747
lowerback 16.0806 0.487919 -4.3766
upperback 12.5825 1.1877 -1.30518
thorax 4.44474 0.783865 0.967734
lowerneck -8.77844 4.55109 10.8726
upperneck 17.2103 5.82988 -6.20329
head 7.21774 3.04585 -3.27862
rclavicle 8.44835e-016 -4.08502e-014
rhumerus -10.8111 24.4777 -91.4078
rradius 72.4179
rwrist -37.6155
rhand -28.5059 -16.3435
rfingers 7.12502
rthumb -1.87455 -46.315
lclavicle 8.44835e-016 -4.08502e-014
lhumerus -4.52686 -25.1627 84.1478
lradius 64.8114
lwrist 32.8467
lhand -18.6277 21.556
lfingers 7.12502
lthumb 7.66455 51.3971
rfemur -29.9225 16.6308 13.6363
rtibia 28.3345
rfoot -31.9325 -30.2434
rtoes -8.32482
lfemur -5.16749 0.435873 -28.533
ltibia 34.9967
lfoot -22.4089 14.2292
ltoes -15.2749
457
root 16.2446 14.9863 -3.92814 129.125 83.0321 -228.773
lowerback 16.6425 0.333852 -4.22627
upperback 12.9958 1.05573 -1.17958
thorax 4.61881 0.744099 1.02931
lowerneck -8.58889 4.62421 10.9044
upperneck 16.7538 5.97451 -6.53585
head 7.05944 3.08382 -3.38124
rclavicle 2.28602e-015 -2.10712e-014
rhumerus -9.66677 24.6079 -90.6471
rradius 72.1616
rwrist -37.7013
rhand -28.5037 -16.0677
rfingers 7.12502
rthumb -1.87239 -46.0393
lclavicle 2.28602e-015 -2.10712e-014
lhumerus -3.2149 -25.3914 83.7691
lradius 64.1671
lwrist 32.4852
lhand -18.9194 21.4132
lfingers 7.12502
lthumb 7.38299 51.2644
rfemur -29.6215 15.6192 13.6066
rtibia 28.371
rfoot -29.2269 -29.4783
rtoes -10.4306
lfemur -5.85404 1.68369 -28.494
ltibia 37.6189
lfoot -22.3733 13.2976
ltoes -16.7483
